PathFileType	4	(X/Y/Z)	./resultDataOpenSim/trcMotMarkerGrf/sub09/qtm-03-03.trc
DataRate	CameraRate	NumFrames	NumMarkers	Units	OrigDataRate	OrigDataStartFrame	OrigNumFrames
250.000000	250.000000	9	24	m	250.000000	180	478
Frame#	Time	L.Toe.Tip			R.Toe.Tip			L.Ankle.Lat			R.Ankle.Lat			L.Ankle.Med			R.Ankle.Med			L.Heel			R.Heel			L.Knee.Lat			R.Knee.Lat			L.Knee.Med			R.Knee.Med			L.Thigh.Upper			R.Thigh.Upper			L.ASIS			R.ASIS			V.Sacral			L.Acromium			R.Acromium			C7			L.Elbow			R.Elbow			L.Wrist.Lat			R.Wrist.Lat
		X1	Y1	Z1	X2	Y2	Z2	X3	Y3	Z3	X4	Y4	Z4	X5	Y5	Z5	X6	Y6	Z6	X7	Y7	Z7	X8	Y8	Z8	X9	Y9	Z9	X10	Y10	Z10	X11	Y11	Z11	X12	Y12	Z12	X13	Y13	Z13	X14	Y14	Z14	X15	Y15	Z15	X16	Y16	Z16	X17	Y17	Z17	X18	Y18	Z18	X19	Y19	Z19	X20	Y20	Z20	X21	Y21	Z21	X22	Y22	Z22	X23	Y23	Z23	X24	Y24	Z24

180	0.716	0.10421786	-0.010001988	0.02872132	-0.65699458	0.059744381	0.10469624	-0.038602458	0.022090119	-0.02725383	-0.71061495	0.19986119	0.14373431	-0.028731101	0.042203721	0.069639465	-0.66142279	0.2000599	0.058716837	-0.11546245	-0.012386898	0.0089388634	-0.75503924	0.23946094	0.081961694	0.0081819675	0.43141625	-0.075265513	-0.31098621	0.40574595	0.22201825	-0.0012525356	0.43498457	0.049756103	-0.30127318	0.38044221	0.09341126	-0.18821482	0.80682758	-0.12969107	-0.25173315	0.79396712	0.23990976	-0.12678468	0.89403301	-0.060904993	-0.14213754	0.87847335	0.17951522	-0.30490283	0.93809619	0.04478534	-0.16130128	1.3369943	-0.12103421	-0.18003351	1.3496777	0.21115988	-0.23692914	1.3932578	0.044147249	-0.32725593	1.016618	-0.17475551	-0.32357369	1.0148419	0.29632703	-0.25961824	0.7698647	-0.2396659	-0.1795856	0.78011178	0.29452125
181	0.72	0.10436135	-0.010099194	0.028780925	-0.65203046	0.061827937	0.10546161	-0.038240082	0.021901738	-0.027169011	-0.69983499	0.20475474	0.14458367	-0.028296701	0.042018231	0.069806005	-0.65070368	0.20335772	0.059791963	-0.11535888	-0.012254034	0.0090475466	-0.7434504	0.24589006	0.083253237	0.012402278	0.43037253	-0.075546222	-0.30054059	0.40551793	0.22364758	0.0033874599	0.43373148	0.049478913	-0.28843519	0.37879042	0.093883487	-0.1813996	0.80705234	-0.12997425	-0.24468084	0.79331605	0.2394691	-0.12005966	0.89432093	-0.061235315	-0.13567717	0.87845631	0.1791887	-0.29761692	0.93870178	0.044607997	-0.15415403	1.3372009	-0.12107363	-0.17285051	1.3498266	0.21116452	-0.22967925	1.3936181	0.044019506	-0.31919281	1.0163194	-0.17527734	-0.31730344	1.0155877	0.29649429	-0.25039874	0.76971356	-0.23949603	-0.17529501	0.7796822	0.29461063
182	0.724	0.1044723	-0.010179157	0.028813322	-0.64638628	0.063999356	0.10636422	-0.037906138	0.021693297	-0.027184753	-0.68869778	0.20941553	0.14543476	-0.028004334	0.041847487	0.069894492	-0.6395477	0.20667807	0.060779787	-0.11526688	-0.012140254	0.009057934	-0.73147095	0.25213301	0.084494085	0.016470181	0.42942114	-0.0757193	-0.2888328	0.40470552	0.22438443	0.0074538852	0.4326384	0.049137973	-0.27565723	0.37752949	0.094247456	-0.17459928	0.8074124	-0.13026811	-0.23784149	0.79285774	0.2390591	-0.11340154	0.89462326	-0.061498597	-0.12935585	0.87859234	0.17894989	-0.29029759	0.93944555	0.044452018	-0.1470571	1.3375021	-0.12110977	-0.16580012	1.3500745	0.21118939	-0.22248565	1.3941343	0.043900979	-0.311182	1.0161075	-0.17569883	-0.31101595	1.0163626	0.29669765	-0.2410779	0.76965133	-0.23926282	-0.17101697	0.77930733	0.29468269
183	0.728	0.10452488	-0.010247682	0.02883817	-0.63986843	0.066312767	0.10747271	-0.037647894	0.021473899	-0.02727328	-0.67732464	0.21380316	0.14622262	-0.027925182	0.041673445	0.069947181	-0.62806838	0.20995762	0.061667553	-0.11519599	-0.012065258	0.008956896	-0.71900417	0.25808012	0.085542358	0.02024617	0.42860545	-0.075814468	-0.27540834	0.40316095	0.22397405	0.011100181	0.43175912	0.04880035	-0.2628469	0.3766589	0.094494055	-0.16782169	0.8079318	-0.13057529	-0.23121037	0.79260445	0.23867908	-0.10680214	0.89495823	-0.061689746	-0.12316353	0.87887162	0.17879818	-0.28311021	0.94031499	0.044346365	-0.13999541	1.3378963	-0.12113233	-0.15887732	1.3504286	0.21122314	-0.21539448	1.3947835	0.043847856	-0.30327579	1.0159878	-0.17597766	-0.30472685	1.0171834	0.29692065	-0.23166454	0.76967995	-0.23896475	-0.1667444	0.77899445	0.29473233
184	0.732	0.10451687	-0.010306314	0.028863498	-0.63231063	0.068834823	0.10880534	-0.037489362	0.021268714	-0.027378467	-0.66579327	0.21791633	0.14690602	-0.028020961	0.04150632	0.070011032	-0.6164138	0.2131824	0.062375699	-0.11515588	-0.012028499	0.0087814965	-0.70611744	0.26367486	0.086427483	0.023639388	0.42798608	-0.075923708	-0.26117505	0.40155415	0.22305785	0.014362277	0.43108188	0.048480921	-0.24997259	0.37618861	0.094635021	-0.16110932	0.80861591	-0.13088078	-0.22474464	0.79256517	0.23831416	-0.10025672	0.89535357	-0.061804401	-0.11708204	0.87929204	0.1787322	-0.27615073	0.9412749	0.044314019	-0.13295905	1.3383909	-0.12113275	-0.15206528	1.3509022	0.21126156	-0.2083817	1.3955415	0.043830619	-0.2954581	1.015967	-0.17621755	-0.29845537	1.0180598	0.297165	-0.22216696	0.76981521	-0.23860574	-0.16248562	0.77875675	0.29475447
185	0.736	0.10446638	-0.010354052	0.028892112	-0.62361437	0.071629408	0.1103333	-0.037415312	0.021100594	-0.027461204	-0.65411343	0.22181189	0.14750902	-0.028178849	0.041382824	0.070093327	-0.60459196	0.2164152	0.062844772	-0.11515842	-0.012009505	0.0086005238	-0.69303646	0.2689414	0.087248461	0.026671176	0.42761126	-0.076167822	-0.24759549	0.40061022	0.22239166	0.017275648	0.43056861	0.04820246	-0.2370786	0.37609597	0.094672575	-0.15452927	0.80945468	-0.13115961	-0.21839594	0.79274252	0.23795322	-0.093764227	0.89584139	-0.06184148	-0.11110148	0.87985441	0.17874295	-0.26939892	0.94224498	0.044436219	-0.12594266	1.3389998	-0.12110409	-0.14535336	1.3515112	0.21130725	-0.20141971	1.3963963	0.043806182	-0.28768699	1.0160528	-0.1765028	-0.29220843	1.018996	0.29743489	-0.21259199	0.77008218	-0.23818478	-0.15826876	0.77861516	0.29474827
186	0.74	0.10440162	-0.010390301	0.028918996	-0.61377265	0.074720949	0.11201992	-0.037377887	0.020979119	-0.027517975	-0.64226219	0.22559283	0.14808704	-0.028255832	0.04133662	0.070168871	-0.59256838	0.21976504	0.063114667	-0.11519831	-0.011982477	0.0084647751	-0.68000902	0.27388375	0.088033131	0.029463564	0.42743259	-0.076576755	-0.23569581	0.40055628	0.22222201	0.019888139	0.43017278	0.047981599	-0.22425319	0.37633199	0.09462832	-0.14813049	0.81043072	-0.13139591	-0.21214505	0.79312713	0.23759534	-0.087327945	0.89644798	-0.061802715	-0.10521455	0.88055639	0.17881464	-0.26276542	0.94315028	0.044808993	-0.11893741	1.3397323	-0.12104029	-0.1387484	1.3522689	0.21136285	-0.19449615	1.3973418	0.043761088	-0.27993739	1.0162504	-0.1768353	-0.28597252	1.0200085	0.29770815	-0.20294432	0.77050068	-0.23769543	-0.15411589	0.77859919	0.29472231
187	0.744	0.10434848	-0.010418297	0.028931347	-0.60287966	0.07805935	0.11384784	-0.037327633	0.020901502	-0.027561067	-0.63021404	0.22937682	0.14867231	-0.02818219	0.041363282	0.070213816	-0.58038472	0.22331358	0.063299932	-0.11524917	-0.011930377	0.0083821781	-0.66718261	0.27842305	0.088688513	0.032136296	0.42729818	-0.077026851	-0.22545686	0.4012265	0.2224313	0.022229587	0.42984674	0.047802615	-0.21160505	0.37687287	0.094593615	-0.1419048	0.81152617	-0.13159446	-0.20599594	0.79369771	0.23724858	-0.080950227	0.89718313	-0.061691807	-0.099403631	0.88139216	0.17893147	-0.25618996	0.94403084	0.045388964	-0.11193223	1.340587	-0.12093595	-0.13225542	1.3531787	0.21143349	-0.18760259	1.3983793	0.043702965	-0.27220229	1.0165652	-0.17718203	-0.27973963	1.0211314	0.2979469	-0.19322671	0.77107691	-0.23713535	-0.15001505	0.77873872	0.29469152
188	0.748	0.10432055	-0.010445638	0.028915775	-0.59107431	0.08154531	0.11580999	-0.037241678	0.020856942	-0.027598254	-0.6179412	0.2332419	0.14926695	-0.028007871	0.041423809	0.070221138	-0.56809887	0.22704536	0.063472015	-0.11528501	-0.011847918	0.0083383995	-0.65456177	0.2824575	0.089074084	0.034706473	0.42708783	-0.077377621	-0.21592393	0.40232827	0.22285067	0.024324831	0.4295582	0.047638135	-0.19921622	0.3777234	0.094676771	-0.1358089	0.81272663	-0.13176757	-0.19995821	0.79443138	0.23692505	-0.074620523	0.89804129	-0.061514402	-0.093648137	0.88235398	0.1790788	-0.24968697	0.94506392	0.045966187	-0.10491969	1.341555	-0.12078957	-0.12585757	1.3542298	0.2115289	-0.18073783	1.3995153	0.043645395	-0.26448243	1.0170049	-0.17751985	-0.27355784	1.0223922	0.29815743	-0.18344335	0.77180737	-0.23650924	-0.14592544	0.77905225	0.29466781
